<svg xmlns="http://www.w3.org/2000/svg" version="1.1" xmlns:xlink="http://www.w3.org/1999/xlink" xmlns:svgjs="http://svgjs.dev/svgjs" width="2000" height="702" viewBox="0 0 2000 702"><g transform="matrix(1,0,0,1,-1.2121212121212466,-0.3857982095975103)"><svg viewBox="0 0 396 139" data-background-color="#ffffff" preserveAspectRatio="xMidYMid meet" height="702" width="2000" xmlns="http://www.w3.org/2000/svg" xmlns:xlink="http://www.w3.org/1999/xlink"><g id="tight-bounds" transform="matrix(1,0,0,1,0.2400000000000091,0.07639024378070758)"><svg viewBox="0 0 395.52 138.84702567717716" height="138.84702567717716" width="395.52"><g><svg viewBox="0 0 696.2878105288161 244.43135999999998" height="138.84702567717716" width="395.52"><g transform="matrix(1,0,0,1,300.7678105288161,74.48829515036164)"><svg viewBox="0 0 395.52 95.45476969927671" height="95.45476969927671" width="395.52"><g id="textblocktransform"><svg viewBox="0 0 395.52 95.45476969927671" height="95.45476969927671" width="395.52" id="textblock"><g><svg viewBox="0 0 395.52 95.45476969927671" height="95.45476969927671" width="395.52"><g transform="matrix(1,0,0,1,0,0)"><svg width="395.52" viewBox="2.4 -31.25 131.32999999999998 31.7" height="95.45476969927671" data-palette-color="#6b7280"><path d="M5.7 0L2.65 0 2.65-24.75 5.7-24.75 5.7 0ZM4.2-27.8L4.2-27.8Q3.45-27.8 2.93-28.33 2.4-28.85 2.4-29.55L2.4-29.55Q2.4-30.3 2.93-30.78 3.45-31.25 4.2-31.25L4.2-31.25Q4.9-31.25 5.45-30.78 6-30.3 6-29.55L6-29.55Q6-28.85 5.45-28.33 4.9-27.8 4.2-27.8ZM14.1 0L11 0 11-24.75 13.55-24.75 13.95-22.1Q14.35-23.6 15.8-24.4 17.25-25.2 18.8-25.2L18.8-25.2Q21.45-25.2 22.67-24.28 23.9-23.35 24.25-21.88 24.6-20.4 24.6-18.65L24.6-18.65 24.6 0 21.5 0 21.5-18.2Q21.5-19.1 21.45-19.95 21.4-20.8 21.07-21.48 20.75-22.15 20-22.55 19.25-22.95 17.8-22.95L17.8-22.95Q16.55-22.95 15.77-22.48 15-22 14.62-21.38 14.25-20.75 14.1-20.2L14.1-20.2 14.1 0ZM35.49 0.35L35.49 0.35Q32.8 0.35 31.29-0.33 29.79-1 29.2-2.48 28.59-3.95 28.59-6.4L28.59-6.4 28.59-8.55 31.74-8.55 31.74-5.7Q31.74-3.35 32.55-2.45 33.34-1.55 35.45-1.55L35.45-1.55Q37.3-1.55 38.17-2.45 39.05-3.35 39.05-5.5L39.05-5.5 39.05-6.9Q39.05-8.05 38.7-8.88 38.34-9.7 37.37-10.4 36.39-11.1 34.64-11.8L34.64-11.8Q32.99-12.45 31.74-13.2 30.49-13.95 29.77-15.1 29.04-16.25 29.04-18.05L29.04-18.05 29.04-19.55Q29.04-22.2 30.57-23.68 32.09-25.15 35.74-25.15L35.74-25.15Q38.14-25.15 39.57-24.5 40.99-23.85 41.67-22.4 42.34-20.95 42.34-18.65L42.34-18.65 42.34-16.55 39.3-16.55 39.3-18.95Q39.3-21.45 38.45-22.38 37.59-23.3 35.74-23.3L35.74-23.3Q33.64-23.3 32.92-22.3 32.2-21.3 32.2-19.8L32.2-19.8 32.2-18.45Q32.2-17.05 32.82-16.15 33.45-15.25 34.59-14.65 35.74-14.05 37.34-13.4L37.34-13.4Q38.8-12.8 39.92-12.13 41.05-11.45 41.7-10.3 42.34-9.15 42.34-7.15L42.34-7.15 42.34-6Q42.34-4 41.72-2.58 41.09-1.15 39.59-0.4 38.09 0.35 35.49 0.35ZM52.19 0.05L52.19 0.05Q51.09 0.05 50.19-0.2 49.29-0.45 48.64-1.03 47.99-1.6 47.64-2.53 47.29-3.45 47.29-4.85L47.29-4.85 47.29-22.8 45.09-22.8 45.09-24.4 47.49-24.75 48.04-29.4 50.39-29.4 50.39-24.75 55.74-24.75 55.74-22.8 50.39-22.8 50.39-5.4Q50.39-4 50.89-3.05 51.39-2.1 53.09-2.1L53.09-2.1Q53.79-2.1 54.59-2.18 55.39-2.25 55.74-2.25L55.74-2.25 55.74-0.25Q55.34-0.25 54.34-0.1 53.34 0.05 52.19 0.05ZM63.44 0.35L63.44 0.35Q62.29 0.35 61.12 0.03 59.94-0.3 59.12-1.48 58.29-2.65 58.29-5.15L58.29-5.15 58.29-7.55Q58.29-10.05 59.82-11.58 61.34-13.1 63.99-14.3L63.99-14.3Q65.69-15.15 66.77-15.8 67.84-16.45 68.39-17.25 68.94-18.05 68.94-19.4L68.94-19.4 68.94-20.45Q68.94-21.65 68.44-22.3 67.94-22.95 67.12-23.2 66.29-23.45 65.39-23.45L65.39-23.45Q63.14-23.45 62.44-22.23 61.74-21 61.74-18.6L61.74-18.6 61.74-16.5 58.89-16.5 58.89-18.9Q58.89-20.75 59.39-22.18 59.89-23.6 61.29-24.43 62.69-25.25 65.39-25.25L65.39-25.25Q68.24-25.25 69.67-24.6 71.09-23.95 71.57-22.75 72.04-21.55 72.04-19.9L72.04-19.9 72.04 0 68.99 0 68.94-3.1Q68.34-1.4 66.79-0.53 65.24 0.35 63.44 0.35ZM64.59-1.75L64.59-1.75Q66.84-1.75 67.87-3.35 68.89-4.95 68.89-7.6L68.89-7.6 68.89-15.5Q68.39-14.7 67.24-14.05 66.09-13.4 64.89-12.75L64.89-12.75Q63.19-11.75 62.27-10.68 61.34-9.6 61.34-7.7L61.34-7.7 61.34-5.75Q61.34-3.95 61.84-3.1 62.34-2.25 63.09-2 63.84-1.75 64.59-1.75ZM83.24 0.45L83.24 0.45Q80.79 0.45 79.24-0.13 77.69-0.7 76.99-2.23 76.29-3.75 76.29-6.7L76.29-6.7 76.29-18.9Q76.29-22.55 77.86-23.88 79.44-25.2 83.09-25.2L83.09-25.2Q86.64-25.2 88.21-23.9 89.79-22.6 89.79-19.1L89.79-19.1 89.79-15.85 86.69-15.85 86.69-19.2Q86.69-21.35 85.99-22.33 85.29-23.3 83.09-23.3L83.09-23.3Q80.89-23.3 80.14-22.33 79.39-21.35 79.39-19.2L79.39-19.2 79.39-5.9Q79.39-3.5 80.14-2.53 80.89-1.55 83.19-1.55L83.19-1.55Q85.29-1.55 85.99-2.5 86.69-3.45 86.69-5.9L86.69-5.9 86.69-9.25 89.79-9.25 89.79-6.7Q89.79-3.85 89.09-2.3 88.39-0.75 86.94-0.15 85.49 0.45 83.24 0.45ZM98.74 0.35L98.74 0.35Q97.59 0.35 96.41 0.03 95.24-0.3 94.41-1.48 93.59-2.65 93.59-5.15L93.59-5.15 93.59-7.55Q93.59-10.05 95.11-11.58 96.64-13.1 99.29-14.3L99.29-14.3Q100.99-15.15 102.06-15.8 103.14-16.45 103.69-17.25 104.24-18.05 104.24-19.4L104.24-19.4 104.24-20.45Q104.24-21.65 103.74-22.3 103.24-22.95 102.41-23.2 101.59-23.45 100.69-23.45L100.69-23.45Q98.44-23.45 97.74-22.23 97.04-21 97.04-18.6L97.04-18.6 97.04-16.5 94.19-16.5 94.19-18.9Q94.19-20.75 94.69-22.18 95.19-23.6 96.59-24.43 97.99-25.25 100.69-25.25L100.69-25.25Q103.54-25.25 104.96-24.6 106.39-23.95 106.86-22.75 107.34-21.55 107.34-19.9L107.34-19.9 107.34 0 104.29 0 104.24-3.1Q103.64-1.4 102.09-0.53 100.54 0.35 98.74 0.35ZM99.89-1.75L99.89-1.75Q102.14-1.75 103.16-3.35 104.19-4.95 104.19-7.6L104.19-7.6 104.19-15.5Q103.69-14.7 102.54-14.05 101.39-13.4 100.19-12.75L100.19-12.75Q98.49-11.75 97.56-10.68 96.64-9.6 96.64-7.7L96.64-7.7 96.64-5.75Q96.64-3.95 97.14-3.1 97.64-2.25 98.39-2 99.14-1.75 99.89-1.75ZM115.28 0L112.18 0 112.18-24.75 114.78-24.75 115.13-22.1Q115.68-23.5 116.93-24.1 118.18-24.7 119.43-24.85L119.43-24.85Q120.83-25.15 122.13-24.9L122.13-24.9 122.13-22.45Q121.93-22.5 121.43-22.55 120.93-22.6 120.36-22.6 119.78-22.6 119.28-22.4L119.28-22.4Q117.58-22.2 116.43-21.18 115.28-20.15 115.28-18.4L115.28-18.4 115.28 0ZM130.18 0.05L130.18 0.05Q129.08 0.05 128.18-0.2 127.28-0.45 126.63-1.03 125.98-1.6 125.63-2.53 125.28-3.45 125.28-4.85L125.28-4.85 125.28-22.8 123.08-22.8 123.08-24.4 125.48-24.75 126.03-29.4 128.38-29.4 128.38-24.75 133.73-24.75 133.73-22.8 128.38-22.8 128.38-5.4Q128.38-4 128.88-3.05 129.38-2.1 131.08-2.1L131.08-2.1Q131.78-2.1 132.58-2.18 133.38-2.25 133.73-2.25L133.73-2.25 133.73-0.25Q133.33-0.25 132.33-0.1 131.33 0.05 130.18 0.05Z" opacity="1" transform="matrix(1,0,0,1,0,0)" fill="#6b7280" class="wordmark-text-0" data-fill-palette-color="primary" id="text-0"></path></svg></g></svg></g></svg></g></svg></g><g><svg viewBox="0 0 244.43135999999998 244.43135999999998" height="244.43135999999998" width="244.43135999999998"><g><svg viewBox="0 0 244.43135999999998 244.43135999999998" height="244.43135999999998" width="244.43135999999998"><g transform="matrix(1,0,0,1,64.60265593644993,67.03283208132476)"><svg viewBox="0 0 115.22604812710013 110.36569583735047" height="110.36569583735047" width="115.22604812710013"><g><svg xmlns="http://www.w3.org/2000/svg" xml:space="preserve" viewBox="0.572 1.6030000000000002 48.855 46.79424624704826" x="0" y="0" height="110.36569583735047" width="115.22604812710013" class="icon-dxe-0" data-fill-palette-color="accent" id="dxe-0"><path d="M42.186 30.884L16.18 39.003M15.722 37.545L41.73 29.43l0.91 2.916-26.007 8.116z" fill="#97978d" data-fill-palette-color="accent"></path><path d="M18.573 42.534a2.276 2.276 0 0 1-2.056 2.48 2.283 2.283 0 0 1-1.967-3.725 2.26 2.26 0 0 1 1.542-0.811 2.272 2.272 0 0 1 2.481 2.056m-2.766-5.099a5.3 5.3 0 0 0-3.607 1.91 5.3 5.3 0 0 0-1.204 3.898 5.34 5.34 0 0 0 5.809 4.813 5.3 5.3 0 0 0 3.606-1.908 5.3 5.3 0 0 0 1.202-3.898 5.3 5.3 0 0 0-1.906-3.607 5.3 5.3 0 0 0-3.9-1.208M13.437 30.991l26.114 8.449M39.08 40.896l-26.115-8.45 0.94-2.904 26.115 8.45z" fill="#97978d" data-fill-palette-color="accent"></path><path d="M32.707 42.546a5.3 5.3 0 0 0 1.184 3.906 5.3 5.3 0 0 0 3.6 1.92 5.34 5.34 0 0 0 5.828-4.781 5.344 5.344 0 0 0-4.785-5.832 5.3 5.3 0 0 0-3.904 1.188 5.28 5.28 0 0 0-1.923 3.599m5.527-1.748a2.28 2.28 0 0 1 2.045 2.492 2.283 2.283 0 0 1-2.492 2.045 2.276 2.276 0 0 1-2.043-2.494c0.059-0.605 0.35-1.15 0.82-1.537a2.26 2.26 0 0 1 1.67-0.506M11.112 19.866L5.497 2.681l-0.34-1.041-1.101-0.008-3.459-0.029-0.025 3.054 3.464 0.028L2.595 3.63l5.614 17.182zM17.157 26.745h20.741l2.868-7.363-25.696 0.094z" fill="#97978d" data-fill-palette-color="accent"></path><path d="M5.755 13.544l6.695 19.205 29.956-0.219 7.021-18.986z m34.61 15.281l-0.381 0.975H14.858l-0.316-1.104-2.963-10.316-0.558-1.939 2.019-0.008 29.957-0.109 2.24-0.008-0.813 2.088z" fill="#97978d" data-fill-palette-color="accent"></path><path fill-rule="evenodd" d="M24.79 5.376h-3.81l3.866 3.197 3.865 3.189 3.867-3.189 3.867-3.197H24.79" clip-rule="evenodd" fill="#97978d" data-fill-palette-color="accent"></path></svg></g></svg></g><g id="text-0"><path d="M29.931 91.509l-0.768 2.765-22.452-6.23 0.767-2.765zM4.336 85.87v0c-0.126 0.453-0.392 0.797-0.799 1.033-0.405 0.229-0.821 0.284-1.248 0.165v0c-0.453-0.126-0.778-0.386-0.974-0.782-0.201-0.404-0.239-0.833-0.114-1.285v0c0.117-0.42 0.367-0.758 0.752-1.015 0.376-0.251 0.791-0.314 1.244-0.188v0c0.427 0.118 0.753 0.387 0.978 0.805 0.224 0.424 0.277 0.847 0.161 1.267z" fill="#97978d" data-fill-palette-color="accent"></path><path d="M40.429 69.424l-1.576 2.459-19.62-12.569 1.293-2.018 2.309 1.025c-0.663-0.72-0.957-1.598-0.883-2.635 0.065-1.035 0.36-1.962 0.885-2.782v0c0.898-1.402 1.797-2.269 2.696-2.602 0.908-0.335 1.812-0.346 2.711-0.033 0.896 0.319 1.805 0.773 2.726 1.364v0l14.787 9.473-1.575 2.459-14.431-9.245c-0.475-0.304-0.943-0.588-1.404-0.851-0.47-0.261-0.938-0.421-1.402-0.48-0.468-0.053-0.934 0.051-1.397 0.313-0.468 0.258-0.947 0.769-1.436 1.532v0c-0.424 0.661-0.641 1.28-0.65 1.855-0.012 0.566 0.083 1.053 0.284 1.461 0.207 0.411 0.429 0.749 0.666 1.013v0z" fill="#97978d" data-fill-palette-color="accent"></path><path d="M65.025 43.261v0c-1.345 1.037-2.519 1.674-3.522 1.913-1.003 0.239-1.935 0.106-2.798-0.399-0.863-0.504-1.764-1.365-2.702-2.583v0l-1.236-1.604 2.345-1.807 1.635 2.122c0.901 1.17 1.724 1.825 2.467 1.964 0.743 0.139 1.636-0.192 2.678-0.995v0c0.92-0.709 1.426-1.455 1.517-2.237 0.092-0.783-0.274-1.708-1.097-2.778v0l-0.805-1.045c-0.442-0.574-0.909-0.999-1.4-1.272-0.491-0.274-1.112-0.398-1.862-0.371-0.754 0.022-1.701 0.196-2.839 0.522v0c-1.069 0.307-2.058 0.513-2.967 0.621-0.909 0.107-1.766 0.013-2.57-0.283-0.795-0.294-1.538-0.891-2.23-1.79v0l-0.861-1.117c-1.016-1.319-1.429-2.636-1.239-3.951 0.199-1.314 1.205-2.67 3.019-4.068v0c1.196-0.922 2.271-1.496 3.224-1.721 0.957-0.221 1.882-0.098 2.774 0.367 0.888 0.46 1.773 1.261 2.654 2.404v0l1.21 1.572-2.273 1.751-1.383-1.795c-0.959-1.244-1.824-1.933-2.597-2.067-0.778-0.13-1.627 0.16-2.546 0.869v0c-1.042 0.803-1.554 1.591-1.535 2.365 0.024 0.778 0.322 1.54 0.896 2.284v0l0.775 1.005c0.537 0.697 1.134 1.147 1.791 1.352 0.653 0.209 1.381 0.241 2.185 0.097 0.798-0.141 1.721-0.356 2.769-0.646v0c0.947-0.255 1.829-0.431 2.646-0.526 0.822-0.099 1.613 0.015 2.375 0.344 0.767 0.324 1.531 0.981 2.293 1.97v0l0.664 0.862c0.766 0.994 1.268 1.964 1.504 2.909 0.231 0.949 0.12 1.899-0.334 2.85-0.458 0.946-1.333 1.917-2.625 2.912z" fill="#97978d" data-fill-palette-color="accent"></path><path d="M93.169 28.376v0c-0.653 0.228-1.272 0.359-1.858 0.393-0.583 0.04-1.128-0.043-1.634-0.25-0.506-0.207-0.956-0.548-1.349-1.022-0.402-0.478-0.747-1.129-1.035-1.953v0l-5.577-15.96-1.958 0.684-0.495-1.416 2.029-1.061-0.961-4.305 2.092-0.731 1.445 4.135 4.753-1.661 0.604 1.73-4.753 1.661 5.405 15.466c0.29 0.83 0.679 1.476 1.168 1.939 0.495 0.46 1.246 0.514 2.254 0.161v0c0.418-0.146 0.854-0.323 1.308-0.531 0.46-0.21 0.794-0.352 1.003-0.425v0l0.621 1.777c-0.241 0.084-0.64 0.274-1.198 0.568-0.565 0.297-1.186 0.564-1.864 0.801z" fill="#97978d" data-fill-palette-color="accent"></path><path d="M119.842 24.168v0c-0.725 0.025-1.459-0.054-2.204-0.237-0.745-0.176-1.388-0.624-1.93-1.344-0.542-0.72-0.84-1.865-0.894-3.436v0l-0.077-2.254c-0.054-1.57 0.383-2.848 1.31-3.833 0.92-0.992 2.199-1.892 3.837-2.701v0c1.049-0.567 1.901-1.066 2.558-1.498 0.664-0.432 1.158-0.906 1.483-1.421 0.332-0.515 0.483-1.195 0.454-2.041v0l-0.034-0.986c-0.026-0.751-0.203-1.326-0.533-1.725-0.329-0.398-0.755-0.666-1.277-0.803-0.522-0.143-1.065-0.205-1.628-0.186v0c-1.416 0.048-2.328 0.466-2.738 1.253-0.41 0.786-0.589 1.931-0.537 3.434v0l0.067 1.972-2.687 0.092-0.077-2.254c-0.04-1.161 0.083-2.193 0.368-3.096 0.285-0.91 0.854-1.638 1.708-2.184 0.861-0.547 2.141-0.849 3.838-0.907v0c1.785-0.061 3.133 0.098 4.047 0.476 0.906 0.379 1.52 0.939 1.84 1.68 0.328 0.741 0.509 1.628 0.545 2.661v0l0.641 18.729-2.878 0.098-0.14-2.917c-0.339 1.08-0.986 1.911-1.94 2.495-0.954 0.583-1.995 0.894-3.122 0.933zM120.851 22.148v0c1.409-0.048 2.418-0.583 3.028-1.604 0.61-1.028 0.886-2.375 0.829-4.039v0l-0.254-7.427c-0.298 0.514-0.799 0.985-1.503 1.412-0.711 0.434-1.435 0.869-2.172 1.303v0c-1.045 0.66-1.845 1.339-2.399 2.037-0.561 0.691-0.821 1.633-0.78 2.828v0l0.063 1.831c0.039 1.134 0.225 1.96 0.558 2.48 0.334 0.526 0.738 0.858 1.213 0.996 0.475 0.138 0.947 0.199 1.417 0.183z" fill="#97978d" data-fill-palette-color="accent"></path><path d="M153.891 29.266v0c-1.467-0.46-2.611-1.008-3.432-1.644-0.816-0.629-1.292-1.467-1.427-2.516-0.129-1.047 0.082-2.451 0.633-4.212v0l3.435-10.964c0.684-2.184 1.622-3.526 2.813-4.026 1.191-0.499 2.878-0.407 5.062 0.278v0c2.127 0.666 3.543 1.536 4.248 2.607 0.697 1.077 0.717 2.662 0.061 4.757v0l-0.915 2.921-2.787-0.873 0.942-3.007c0.403-1.288 0.488-2.288 0.255-3.002-0.24-0.715-1.02-1.28-2.34-1.693v0c-1.313-0.411-2.285-0.396-2.916 0.047-0.631 0.442-1.148 1.308-1.552 2.595v0l-3.742 11.944c-0.452 1.441-0.544 2.524-0.278 3.247 0.266 0.723 1.087 1.301 2.464 1.732v0c1.256 0.393 2.184 0.371 2.786-0.066 0.595-0.44 1.122-1.393 1.582-2.86v0l0.942-3.008 2.786 0.873-0.719 2.297c-0.534 1.704-1.158 2.954-1.871 3.75-0.707 0.798-1.553 1.241-2.537 1.327-0.977 0.088-2.142-0.08-3.493-0.504z" fill="#97978d" data-fill-palette-color="accent"></path><path d="M180.917 43.385v0c-0.582-0.432-1.108-0.952-1.577-1.559-0.473-0.602-0.697-1.353-0.672-2.254 0.025-0.901 0.505-1.982 1.441-3.244v0l1.344-1.811c0.936-1.262 2.073-1.989 3.413-2.183 1.338-0.203 2.899-0.11 4.684 0.278v0c1.173 0.21 2.151 0.351 2.934 0.422 0.789 0.075 1.47 0.013 2.045-0.188 0.58-0.196 1.123-0.634 1.627-1.313v0l0.588-0.793c0.448-0.604 0.667-1.164 0.658-1.681-0.009-0.517-0.176-0.991-0.499-1.423-0.319-0.437-0.705-0.824-1.158-1.16v0c-1.138-0.844-2.112-1.086-2.922-0.726-0.81 0.36-1.664 1.144-2.56 2.351v0l-1.176 1.585-2.159-1.602 1.344-1.811c0.692-0.933 1.431-1.664 2.216-2.193 0.789-0.534 1.688-0.749 2.698-0.644 1.014 0.109 2.203 0.669 3.567 1.681v0c1.434 1.064 2.39 2.028 2.869 2.894 0.473 0.861 0.604 1.681 0.393 2.461-0.205 0.784-0.616 1.591-1.232 2.421v0l-11.166 15.049-2.313-1.716 1.708-2.369c-0.938 0.633-1.962 0.881-3.072 0.743-1.11-0.138-2.117-0.543-3.023-1.215zM182.964 42.434v0c1.132 0.84 2.255 1.05 3.369 0.631 1.118-0.425 2.172-1.306 3.164-2.642v0l4.428-5.969c-0.553 0.216-1.239 0.272-2.055 0.168-0.826-0.103-1.663-0.214-2.511-0.333v0c-1.229-0.135-2.278-0.102-3.145 0.099-0.869 0.191-1.66 0.766-2.372 1.726v0l-1.092 1.471c-0.676 0.911-1.045 1.674-1.108 2.288-0.067 0.619 0.043 1.131 0.328 1.535 0.285 0.404 0.617 0.746 0.994 1.026z" fill="#97978d" data-fill-palette-color="accent"></path><path d="M203.175 65.925l-1.672-2.394 19.103-13.342 1.401 2.006-1.857 1.702c0.917-0.223 1.754-0.12 2.513 0.309 0.758 0.429 1.4 0.938 1.927 1.528v0c0.658 0.613 1.156 1.297 1.494 2.052v0l-1.89 1.32c-0.046-0.124-0.146-0.32-0.301-0.589-0.153-0.278-0.333-0.565-0.541-0.862-0.208-0.297-0.452-0.536-0.733-0.716v0c-0.71-0.806-1.537-1.322-2.481-1.547-0.94-0.22-1.861-0.015-2.763 0.616v0z" fill="#97978d" data-fill-palette-color="accent"></path><path d="M216.279 93.486v0c-0.213-0.658-0.33-1.28-0.351-1.865-0.027-0.584 0.069-1.127 0.287-1.629 0.219-0.501 0.569-0.943 1.052-1.325 0.487-0.391 1.146-0.721 1.976-0.99v0l16.083-5.215-0.64-1.973 1.427-0.463 1.015 2.052 4.325-0.862 0.684 2.107-4.167 1.351 1.553 4.79-1.743 0.565-1.553-4.789-15.585 5.053c-0.837 0.271-1.491 0.646-1.964 1.124-0.471 0.484-0.542 1.234-0.213 2.25v0c0.137 0.421 0.304 0.861 0.502 1.319 0.2 0.464 0.334 0.802 0.403 1.013v0l-1.792 0.58c-0.079-0.243-0.259-0.646-0.541-1.211-0.284-0.571-0.537-1.199-0.758-1.882z" fill="#97978d" data-fill-palette-color="accent"></path><path d="M6.922 159.192l-0.816-2.93 23.738-6.608 0.815 2.929zM33.186 150.322v0c-0.133-0.479-0.079-0.933 0.164-1.362 0.243-0.43 0.587-0.707 1.034-0.832v0c0.479-0.133 0.917-0.074 1.314 0.178 0.398 0.252 0.663 0.617 0.796 1.095v0c0.126 0.453 0.086 0.896-0.121 1.33-0.207 0.434-0.549 0.717-1.028 0.851v0c-0.446 0.124-0.886 0.059-1.319-0.197-0.434-0.256-0.713-0.61-0.84-1.063z" fill="#97978d" data-fill-palette-color="accent"></path><path d="M20.179 187.347l-1.665-2.605 20.758-13.275 1.367 2.138-2.006 1.76c0.984-0.318 1.959-0.213 2.927 0.316 0.964 0.523 1.723 1.217 2.276 2.082v0c0.948 1.482 1.382 2.734 1.303 3.757-0.077 1.013-0.467 1.88-1.169 2.6-0.699 0.726-1.538 1.402-2.516 2.028v0l-15.643 10.004-1.666-2.604 15.27-9.766c0.503-0.322 0.983-0.649 1.44-0.981 0.457-0.332 0.817-0.71 1.08-1.133 0.258-0.42 0.366-0.911 0.325-1.474-0.047-0.56-0.331-1.247-0.852-2.061v0c-0.445-0.696-0.939-1.176-1.484-1.442-0.541-0.26-1.052-0.387-1.535-0.381-0.484 0.015-0.908 0.082-1.269 0.202v0z" fill="#97978d" data-fill-palette-color="accent"></path><path d="M50.07 220.296v0c-1.42-1.094-2.386-2.122-2.899-3.085-0.513-0.963-0.629-1.955-0.35-2.977 0.284-1.018 0.922-2.171 1.913-3.458v0l1.303-1.691 2.489 1.917-1.727 2.242c-0.954 1.239-1.404 2.257-1.348 3.054 0.056 0.797 0.634 1.619 1.735 2.468v0c0.973 0.75 1.873 1.066 2.7 0.949 0.822-0.121 1.669-0.748 2.542-1.881v0l0.848-1.101c0.467-0.606 0.778-1.197 0.933-1.772 0.146-0.574 0.105-1.241-0.123-2.002-0.229-0.77-0.662-1.692-1.3-2.768v0c-0.605-1.008-1.083-1.961-1.433-2.858-0.356-0.902-0.492-1.803-0.409-2.704 0.089-0.897 0.499-1.819 1.228-2.766v0l0.91-1.181c1.073-1.393 2.308-2.171 3.703-2.333 1.401-0.158 3.062 0.503 4.982 1.982v0c1.26 0.971 2.134 1.915 2.622 2.833 0.484 0.923 0.611 1.902 0.381 2.937-0.229 1.035-0.811 2.159-1.745 3.372v0l-1.272 1.651-2.409-1.856 1.456-1.89c1.012-1.314 1.483-2.387 1.413-3.221-0.074-0.828-0.598-1.617-1.571-2.366v0c-1.106-0.852-2.051-1.16-2.834-0.925-0.788 0.232-1.486 0.741-2.092 1.528v0l-0.823 1.069c-0.565 0.734-0.865 1.465-0.9 2.192-0.035 0.727 0.127 1.479 0.486 2.256 0.36 0.786 0.83 1.673 1.408 2.66v0c0.524 0.904 0.944 1.761 1.26 2.572 0.316 0.811 0.41 1.651 0.284 2.52-0.117 0.867-0.581 1.827-1.393 2.88v0l-0.7 0.909c-0.807 1.048-1.664 1.819-2.572 2.316-0.907 0.496-1.906 0.637-2.996 0.424-1.1-0.212-2.333-0.844-3.7-1.896z" fill="#97978d" data-fill-palette-color="accent"></path><path d="M85.319 238.35v0c-0.691-0.242-1.29-0.54-1.799-0.896-0.511-0.349-0.906-0.776-1.184-1.279-0.279-0.503-0.428-1.085-0.446-1.745-0.014-0.652 0.134-1.418 0.442-2.299v0l5.904-16.871-2.072-0.725 0.526-1.501 2.365 0.465 2.053-4.189 2.205 0.771-1.53 4.372 5.028 1.76-0.639 1.825-5.027-1.76-5.725 16.357c-0.306 0.874-0.405 1.665-0.296 2.372 0.102 0.704 0.685 1.243 1.75 1.615v0c0.437 0.153 0.914 0.295 1.429 0.425 0.516 0.131 0.885 0.235 1.107 0.313v0l-0.655 1.872c-0.247-0.086-0.701-0.192-1.362-0.316-0.661-0.124-1.352-0.313-2.074-0.566z" fill="#97978d" data-fill-palette-color="accent"></path><path d="M118.769 244.427v0c-0.765-0.028-1.532-0.166-2.302-0.416-0.77-0.243-1.417-0.763-1.939-1.562-0.515-0.798-0.743-2.025-0.682-3.682v0l0.086-2.395c0.06-1.657 0.615-2.974 1.665-3.95 1.043-0.97 2.457-1.822 4.244-2.557v0c1.154-0.522 2.095-0.985 2.822-1.389 0.727-0.41 1.281-0.874 1.662-1.391 0.388-0.517 0.598-1.221 0.631-2.113v0l0.038-1.046c0.029-0.798-0.117-1.418-0.436-1.86-0.313-0.441-0.742-0.756-1.286-0.944-0.537-0.187-1.105-0.292-1.702-0.313v0c-1.496-0.054-2.49 0.316-2.982 1.111-0.492 0.795-0.767 1.991-0.826 3.587v0l-0.075 2.083-2.838-0.103 0.087-2.384c0.045-1.228 0.252-2.308 0.621-3.243 0.363-0.934 1.017-1.656 1.963-2.165 0.952-0.516 2.324-0.742 4.115-0.677v0c1.892 0.069 3.303 0.335 4.234 0.798 0.923 0.47 1.528 1.107 1.815 1.91 0.286 0.81 0.41 1.761 0.37 2.855v0l-0.719 19.804-3.028-0.11 0.061-3.091c-0.437 1.119-1.182 1.949-2.236 2.488-1.048 0.546-2.168 0.798-3.363 0.755zM119.992 242.375v0c1.489 0.054 2.595-0.437 3.318-1.472 0.716-1.035 1.106-2.435 1.17-4.199v0l0.285-7.859c-0.355 0.518-0.919 0.981-1.693 1.389-0.78 0.402-1.577 0.803-2.391 1.203v0c-1.151 0.623-2.045 1.279-2.681 1.969-0.643 0.695-0.988 1.674-1.033 2.935v0l-0.07 1.932c-0.043 1.194 0.093 2.079 0.407 2.654 0.308 0.582 0.707 0.963 1.198 1.142 0.497 0.186 0.994 0.288 1.49 0.306z" fill="#97978d" data-fill-palette-color="accent"></path><path d="M161.263 238.415v0c-1.551 0.483-2.876 0.7-3.974 0.648-1.094-0.06-2.014-0.504-2.758-1.334-0.744-0.83-1.407-2.181-1.99-4.052v0l-3.614-11.594c-0.721-2.314-0.716-4.045 0.016-5.194 0.738-1.151 2.264-2.087 4.577-2.809v0c2.25-0.701 4.003-0.794 5.261-0.279 1.255 0.509 2.229 1.872 2.92 4.089v0l0.965 3.096-2.952 0.92-0.994-3.192c-0.423-1.359-0.953-2.28-1.59-2.764-0.634-0.477-1.65-0.498-3.046-0.063v0c-1.391 0.433-2.231 1.033-2.52 1.798-0.28 0.769-0.209 1.834 0.215 3.192v0l3.943 12.652c0.473 1.519 1.043 2.512 1.709 2.979 0.674 0.472 1.739 0.481 3.194 0.028v0c1.333-0.416 2.127-0.993 2.381-1.734 0.254-0.74 0.14-1.886-0.343-3.437v0l-0.995-3.191 2.951-0.92 0.755 2.422c0.563 1.807 0.774 3.274 0.634 4.402-0.137 1.118-0.604 2.01-1.403 2.673-0.805 0.666-1.919 1.22-3.342 1.664z" fill="#97978d" data-fill-palette-color="accent"></path><path d="M195.495 220.456v0c-0.615 0.455-1.302 0.826-2.059 1.111-0.754 0.291-1.583 0.287-2.49-0.012-0.9-0.302-1.844-1.12-2.83-2.453v0l-1.425-1.926c-0.986-1.333-1.374-2.708-1.163-4.126 0.21-1.408 0.785-2.957 1.724-4.645v0c0.576-1.128 1.023-2.077 1.339-2.846 0.312-0.774 0.456-1.482 0.432-2.124-0.019-0.646-0.294-1.328-0.825-2.045v0l-0.623-0.842c-0.475-0.642-0.976-1.036-1.501-1.181-0.52-0.15-1.051-0.128-1.593 0.064-0.537 0.189-1.045 0.461-1.526 0.816v0c-1.203 0.891-1.749 1.8-1.638 2.729 0.111 0.928 0.642 2.035 1.592 3.319v0l1.24 1.675-2.283 1.689-1.419-1.918c-0.731-0.987-1.243-1.961-1.537-2.922-0.299-0.957-0.238-1.929 0.184-2.917 0.423-0.998 1.354-2.03 2.795-3.096v0c1.522-1.126 2.791-1.798 3.807-2.016 1.015-0.208 1.885-0.088 2.61 0.361 0.729 0.454 1.419 1.121 2.069 2.001v0l11.79 15.929-2.436 1.803-1.88-2.455c0.357 1.148 0.291 2.261-0.196 3.34-0.478 1.08-1.197 1.976-2.158 2.687zM195.172 218.089v0c1.198-0.887 1.756-1.96 1.675-3.219-0.086-1.256-0.654-2.593-1.704-4.013v0l-4.679-6.321c0.046 0.626-0.107 1.34-0.456 2.142-0.36 0.801-0.733 1.611-1.119 2.432v0c-0.511 1.205-0.801 2.275-0.869 3.211-0.069 0.945 0.272 1.924 1.023 2.938v0l1.15 1.554c0.711 0.96 1.369 1.567 1.974 1.821 0.604 0.263 1.153 0.311 1.649 0.146 0.505-0.165 0.956-0.395 1.356-0.69z" fill="#97978d" data-fill-palette-color="accent"></path><path d="M222.742 191.889l-1.774 2.532-20.181-14.138 1.485-2.119 2.363 1.225c-0.556-0.832-0.758-1.703-0.604-2.612 0.149-0.904 0.422-1.725 0.817-2.465v0c0.367-0.874 0.867-1.618 1.501-2.231v0l1.996 1.399c-0.105 0.091-0.265 0.261-0.481 0.511-0.22 0.256-0.44 0.54-0.66 0.853-0.216 0.308-0.365 0.638-0.447 0.99v0c-0.537 1.001-0.748 2.009-0.632 3.025 0.126 1.014 0.664 1.854 1.615 2.521v0z" fill="#97978d" data-fill-palette-color="accent"></path><path d="M239.092 158.171v0c-0.228 0.695-0.515 1.301-0.861 1.816-0.339 0.517-0.758 0.921-1.255 1.209-0.497 0.289-1.076 0.449-1.736 0.48-0.652 0.026-1.421-0.106-2.307-0.397v0l-16.984-5.57-0.684 2.086-1.512-0.496 0.419-2.375-4.229-1.969 0.728-2.22 4.402 1.443 1.66-5.061 1.837 0.602-1.66 5.062 16.466 5.401c0.88 0.289 1.672 0.372 2.377 0.25 0.702-0.116 1.229-0.71 1.58-1.781v0c0.144-0.44 0.277-0.919 0.398-1.438 0.121-0.519 0.218-0.889 0.291-1.113v0l1.885 0.618c-0.082 0.249-0.178 0.705-0.29 1.368-0.111 0.663-0.286 1.358-0.525 2.085z" fill="#97978d" data-fill-palette-color="accent"></path><path d="M2.505 121.991c0-6.207 5.032-11.24 11.239-11.24 6.207 0 11.24 5.032 11.24 11.24 0 6.207-5.032 11.24-11.24 11.239-6.207 0-11.24-5.032-11.239-11.239z" fill="#97978d" data-fill-palette-color="accent"></path><path d="M220.823 121.991c0-6.207 5.032-11.24 11.24-11.24 6.207 0 11.24 5.032 11.239 11.24 0 6.207-5.032 11.24-11.239 11.239-6.207 0-11.24-5.032-11.24-11.239z" fill="#97978d" data-fill-palette-color="accent"></path></g><g id="text-1"></g></svg></g></svg></g></svg></g><defs></defs></svg><rect width="395.52" height="138.84702567717716" fill="none" stroke="none" visibility="hidden"></rect></g></svg></g></svg>